<svg xmlns="http://www.w3.org/2000/svg" width="400" height="400"><g fill-rule="evenodd"><path d="M194.6.385c-.44.197-1.589.371-2.554.387-.964.015-2.494.224-3.4.463-4.363 1.152-7.31 2.037-7.941 2.383-.382.21-.922.382-1.2.383-.979.001-10.095 4.865-13.28 7.087-17.598 12.271-32.747 33.305-42.288 58.712-.661 1.76-1.473 3.917-1.804 4.794-2.757 7.3-6.505 20.998-8.319 30.406-1.511 7.835-2.339 13.337-3.219 21.4-.508 4.65-1.176 7.189-1.895 7.197-.165.002-.3.363-.3.803 0 .44-.18.8-.4.8-.22 0-.4.272-.4.605 0 .588-.167 1.013-1.138 2.89-.254.492-.462 1.246-.462 1.676 0 .43-.18.893-.4 1.029-.22.136-.4.766-.4 1.4 0 .634-.155 1.248-.343 1.365-1.299.803-1.299 18.867 0 19.67.188.117.343.595.343 1.062 0 .987 1.526 5.524 2.047 6.083.194.209.353.704.353 1.1 0 .396.18.72.4.72.22 0 .4.349.4.776 0 .427.18.888.4 1.024.265.164.4 31.238.4 91.926v91.679l1.3.533c3.686 1.511 6.514 3.198 10.5 6.264 7.454 5.732 9.172 6.87 14.195 9.398.437.22 1.069.4 1.405.4.336 0 .923.158 1.305.351 2.303 1.163 4.223 1.404 11.196 1.405 5.135.001 7.444-.141 7.78-.477.264-.264.972-.479 1.575-.479s1.208-.18 1.344-.4c.136-.22.676-.4 1.2-.4.524 0 1.064-.18 1.2-.4.136-.22.597-.4 1.024-.4.427 0 .776-.18.776-.4 0-.22.258-.4.574-.4.731 0 6.367-3.846 11.987-8.179 2.399-1.85 5.549-3.935 7-4.634a237.124 237.124 0 003.334-1.629 3.83 3.83 0 011.476-.358c.43 0 .881-.16 1.002-.356.842-1.363 20.412-1.363 21.254 0 .121.196.572.356 1.002.356.43 0 1.094.164 1.476.365.382.201 1.685.826 2.895 1.388 2.558 1.189 5.272 3.035 11.931 8.114 4.384 3.344 9.965 6.533 11.434 6.533.323 0 .699.18.835.4.136.22.741.4 1.344.4.603 0 1.311.215 1.575.479.701.701 14.547.654 16.681-.057.88-.294 2.14-.707 2.8-.918 4.343-1.392 7.596-3.374 15.763-9.604 2.236-1.705 4.238-3.1 4.451-3.1.212 0 .386-.18.386-.4 0-.22.255-.4.567-.4.311 0 .626-.135.7-.3.073-.165 1.033-.725 2.133-1.244s2.313-1.104 2.695-1.3a3.846 3.846 0 011.476-.356c.43 0 .881-.16 1.002-.356.61-.988 15.53-1.665 18.427-.836.88.252 2.32.644 3.2.871.88.228 2.32.736 3.2 1.13 2.573 1.152 3.024 1.224 3.664.584.333-.333 1.265-1.091 2.071-1.686 1.48-1.091 2.421-1.854 7.418-6.015 3.127-2.603 18.661-18.028 21.56-21.408l1.912-2.23-.12-94.527c-.089-69.481-.243-95.11-.583-96.727-.254-1.21-.666-3.817-.916-5.792-.57-4.497-2.189-12.72-3.231-16.408-.435-1.54-.992-3.52-1.237-4.4-1.08-3.875-1.256-4.438-1.587-5.095-.193-.382-.351-.969-.351-1.305 0-.336-.18-.968-.4-1.405l-.8-1.59c-.22-.437-.4-1.121-.4-1.52s-.151-.896-.336-1.105c-.185-.209-.564-1.01-.842-1.78-1.203-3.326-6.44-14.113-9.086-18.714-1.175-2.043-2.136-3.806-2.136-3.917 0-.112-.182-.42-.404-.686-.222-.266-1.325-1.923-2.45-3.683-1.125-1.76-2.204-3.26-2.396-3.333a.578.578 0 01-.35-.496c0-.199-.26-.679-.578-1.066-.317-.388-1.436-1.875-2.485-3.305-7.831-10.671-21.116-23.871-31.337-31.137-3.3-2.345-11.174-7.663-11.347-7.663-.094 0-1.315-.692-2.712-1.538-4.875-2.951-15.439-8.112-20.541-10.035-2.999-1.131-4.21-1.624-5.095-2.074a3.88 3.88 0 00-1.476-.353c-.43 0-.893-.18-1.029-.4-.136-.22-.676-.4-1.2-.4-.524 0-1.051-.159-1.171-.354-.121-.195-.716-.45-1.324-.567a38.825 38.825 0 01-2.705-.673c-.88-.252-2.275-.627-3.1-.833-.825-.205-2.175-.544-3-.753-6.23-1.581-14.122-2.985-21.5-3.826-5.823-.664-19.375-1.069-20.4-.609m-52.046 115.641c7.422 1.919 11.414 4.049 16.346 8.718 1.265 1.198 2.3 2.399 2.3 2.67 0 .271.351.585.78.697.429.112 1.679 1.58 2.778 3.263 7.617 11.669 8.512 29.052 2.142 41.623-1.682 3.319-4.6 7.504-5.373 7.706-.4.105-.727.421-.727.703 0 .605-3.592 3.775-6.528 5.76-17.868 12.082-42.037 1.762-48.167-20.566-2.225-8.106-2.503-12.259-1.298-19.4l.626-3.704c.141-.827.416-1.602.611-1.723.196-.121.356-.572.356-1.002 0-.43.159-1.094.353-1.476a34.61 34.61 0 00.853-1.895c2.985-7.174 7.223-12.41 13.476-16.647 1.585-1.074 2.982-1.953 3.104-1.953.123 0 .986-.332 1.918-.738 2.46-1.071 4.415-1.661 5.524-1.668.535-.003 1.242-.181 1.572-.394.809-.523 7.302-.505 9.354.026m124.7-.026c.85.22 2.299.597 3.218.838 5.557 1.454 15.528 8.275 15.528 10.621 0 .298.315.543.7.546.805.006 3.82 4.512 5.485 8.195.596 1.32 1.249 2.713 1.45 3.095.201.382.365 1.046.365 1.476 0 .43.16.881.356 1.002 1.959 1.211 1.959 23.243 0 24.454-.196.121-.356.572-.356 1.002a3.88 3.88 0 01-.353 1.476 23.12 23.12 0 00-.744 1.695c-.214.55-.802 1.81-1.306 2.8-.504.99-1.114 2.204-1.357 2.697-.242.493-.575.898-.74.9-.165.002-.3.253-.3.559 0 1.149-8.116 8.844-11.2 10.62-16.416 9.45-36.083 2.81-44.598-15.057-1.789-3.753-1.972-4.212-2.603-6.519-.27-.99-.641-2.25-.824-2.8-1.329-4.002-1.202-14.568.238-19.8.303-1.1.666-2.45.808-3 .513-1.986 2.67-6.644 3.946-8.518.568-.835 1.033-1.618 1.033-1.742 0-.309 4.925-6.14 5.188-6.142.117-.001.752-.504 1.412-1.118 4.838-4.502 12.658-7.523 19.754-7.629 1.844-.028 4.049.129 4.9.349" fill="#3cc3db"/><path d="M133.2 116c-.33.213-1.037.391-1.572.394-1.109.007-3.064.597-5.524 1.668-.932.406-1.795.738-1.918.738-.122 0-1.519.879-3.104 1.953-6.253 4.237-10.491 9.473-13.476 16.647a34.61 34.61 0 01-.853 1.895 3.88 3.88 0 00-.353 1.476c0 .43-.16.881-.356 1.002-.195.121-.47.896-.611 1.723l-.626 3.704c-1.343 7.962-.482 15.801 2.506 22.8 3.799 8.9 8.555 14.568 15.546 18.527 11.353 6.43 24.895 4.654 35.713-4.685 2.69-2.322 2.745-2.776.46-3.787-17.746-7.85-21.882-32.295-7.769-45.917 2.331-2.25 6.453-5.039 8.587-5.81 1.826-.661 1.722-1.054-.95-3.584-2.912-2.757-4.587-3.998-7.1-5.261-3.75-1.885-5.059-2.374-9.246-3.457-2.052-.531-8.545-.549-9.354-.026m124.2.084c-3.524.843-4.91 1.303-7.4 2.456-2.918 1.351-5.612 3.076-7.4 4.74-.66.614-1.295 1.117-1.412 1.118-.263.002-5.188 5.833-5.188 6.142 0 .124-.465.907-1.033 1.742-1.276 1.874-3.433 6.532-3.946 8.518-.142.55-.505 1.9-.808 3-1.44 5.232-1.567 15.798-.238 19.8.183.55.554 1.81.824 2.8 2.031 7.431 7.176 15.018 13.515 19.932 8.348 6.47 21.206 7.807 30.69 3.191 3.044-1.482 3.75-1.937 6.878-4.44 4.57-3.655 4.603-3.772 1.516-5.298-21.194-10.476-20.897-41.079.495-51.013 2.417-1.122 2.517-1.433.975-3.013-4.271-4.371-9.577-7.66-14.396-8.921-.919-.241-2.368-.618-3.218-.838-1.888-.488-7.668-.439-9.854.084" fill="#f7f8f8"/><path d="M182.5.287a8.899 8.899 0 002.2 0c.605-.092.11-.167-1.1-.167-1.21 0-1.705.075-1.1.167m32.607.003c.719.089 1.799.087 2.4-.004s.013-.164-1.307-.162c-1.32.002-1.812.077-1.093.166M174.8.8c0 .22.99.4 2.2.4 1.21 0 2.2-.18 2.2-.4 0-.22-.99-.4-2.2-.4-1.21 0-2.2.18-2.2.4m45.6 0c0 .222 1.067.4 2.4.4s2.4-.178 2.4-.4c0-.222-1.067-.4-2.4-.4s-2.4.178-2.4.4m-51.2.8c0 .222-1.059.4-2.376.4-1.307 0-2.488.18-2.624.4-.136.22-1.137.4-2.224.4-1.087 0-1.976.18-1.976.4 0 .22-.799.4-1.776.4s-1.888.18-2.024.4c-.136.22-.957.4-1.824.4-.867 0-1.576.18-1.576.4 0 .22-.72.4-1.6.4-.88 0-1.6.18-1.6.4 0 .22-.72.4-1.6.4-.88 0-1.6.18-1.6.4 0 .22-.54.4-1.2.4-.66 0-1.2.18-1.2.4 0 .22-.63.4-1.4.4-.77 0-1.4.18-1.4.4 0 .22-.429.4-.954.4-1.024 0-4.799 1.04-5.941 1.637-.382.2-.969.363-1.305.363-.336 0-.923.159-1.305.353-.382.195-1.19.555-1.795.8l-2.2.894c-.605.245-1.413.605-1.795.8-.382.194-.967.353-1.3.353-.333 0-.605.147-.605.328 0 .18-.9.572-2 .872-1.1.3-2 .692-2 .872 0 .181-.36.328-.8.328-.44 0-.8.18-.8.4 0 .22-.36.4-.8.4-.44 0-.8.18-.8.4 0 .22-.272.4-.605.4-.333 0-.918.161-1.3.358-.382.197-1.955.961-3.495 1.698s-2.86 1.476-2.933 1.642c-.074.166-.479.302-.9.302-.422 0-.767.18-.767.4 0 .22-.236.4-.525.4-.288 0-.911.36-1.383.8-.472.44-1.136.8-1.475.8-.339 0-.617.18-.617.4 0 .22-.264.4-.586.4-.813 0-3.414 1.276-3.414 1.674 0 .179-.36.326-.8.326-.44 0-.8.18-.8.4 0 .22-.193.4-.428.4s-1.213.54-2.172 1.2c-.959.66-1.897 1.2-2.084 1.2-.187 0-.599.36-.916.8-.317.44-.857.8-1.2.8-.343 0-.883.36-1.2.8-.317.44-.857.8-1.2.8-.343 0-.883.36-1.2.8-.317.44-.809.8-1.092.8-.283 0-1.08.54-1.771 1.2-.691.66-1.459 1.2-1.708 1.2-.249 0-.712.36-1.029.8-.317.44-.78.8-1.029.8-.249 0-1.017.54-1.708 1.2-.691.66-1.355 1.2-1.476 1.2-.251 0-.637.305-2.529 1.999-.739.66-1.499 1.201-1.69 1.201-.191 0-1.117.767-2.057 1.705-.941.938-2.341 2.15-3.111 2.694-1.09.769-5.343 4.928-9.513 9.302-.158.166-2.091 2.056-4.297 4.2-2.205 2.145-4.453 4.529-4.994 5.299-.542.77-1.753 2.17-2.691 3.111-.938.94-1.705 1.866-1.705 2.057 0 .191-.541.951-1.201 1.69-1.694 1.892-1.999 2.278-1.999 2.529 0 .121-.54.785-1.2 1.476-.66.691-1.2 1.411-1.2 1.6 0 .189-.54.909-1.2 1.6-.66.691-1.2 1.459-1.2 1.708 0 .249-.36.712-.8 1.029-.44.317-.8.857-.8 1.2 0 .343-.36.883-.8 1.2-.44.317-.8.857-.8 1.2 0 .343-.36.883-.8 1.2-.44.317-.8.857-.8 1.2 0 .343-.36.883-.8 1.2-.44.317-.8.736-.8.93 0 .195-.54 1.154-1.2 2.132-.66.978-1.2 1.934-1.2 2.125 0 .19-.135.406-.3.48-.405.18-2.5 4.122-2.5 4.704 0 .254-.36.849-.8 1.321-.44.472-.8 1.095-.8 1.383 0 .289-.18.525-.4.525-.22 0-.4.36-.4.8 0 .44-.18.8-.4.8-.22 0-.4.36-.4.8 0 .44-.18.8-.4.8-.22 0-.4.36-.4.8 0 .44-.146.8-.325.8-.179 0-.573.63-.875 1.4-.302.77-.696 1.4-.875 1.4-.179 0-.325.349-.325.776 0 .427-.18.888-.4 1.024-.22.136-.4.687-.4 1.224 0 .537-.18.976-.4.976-.22 0-.4.36-.4.8 0 .44-.18.8-.4.8-.22 0-.4.36-.4.8 0 .44-.18.8-.4.8-.22 0-.4.349-.4.776 0 .427-.18.888-.4 1.024-.22.136-.4.687-.4 1.224 0 .537-.18.976-.4.976-.22 0-.4.36-.4.8 0 .44-.18.8-.4.8-.22 0-.4.362-.4.805 0 .443-.159 1.118-.353 1.5a32.261 32.261 0 00-.847 1.895c-.271.66-.652 1.513-.847 1.895-.194.382-.353.969-.353 1.305 0 .336-.163.923-.363 1.305-.597 1.142-1.637 4.917-1.637 5.941 0 .525-.18.954-.4.954-.22 0-.4.63-.4 1.4 0 .77-.18 1.4-.4 1.4-.22 0-.4.529-.4 1.176 0 .647-.18 1.288-.4 1.424-.22.136-.4.867-.4 1.624 0 .757-.18 1.376-.4 1.376-.22 0-.4.72-.4 1.6 0 .88-.18 1.6-.4 1.6-.22 0-.4.709-.4 1.576 0 .867-.18 1.688-.4 1.824-.22.136-.4 1.047-.4 2.024 0 .977-.18 1.776-.4 1.776-.22 0-.4.9-.4 2s-.18 2-.4 2c-.222 0-.4 1.059-.4 2.376 0 1.307-.18 2.488-.4 2.624-.22.136-.4 1.371-.4 2.744 0 1.463-.207 2.703-.5 2.996-.731.731-.731 50.116 0 50.36.336.112.5 1.076.5 2.933 0 1.578.172 2.767.4 2.767.222 0 .4 1.059.4 2.376 0 1.307.18 2.488.4 2.624.22.136.4 1.036.4 2s.18 1.864.4 2c.22.136.4.946.4 1.8 0 .854.18 1.664.4 1.8.22.136.4 1.047.4 2.024 0 .977.18 1.776.4 1.776.22 0 .4.72.4 1.6 0 .88.18 1.6.4 1.6.22 0 .4.72.4 1.6 0 .88.18 1.6.4 1.6.22 0 .4.54.4 1.2 0 .66.18 1.2.4 1.2.22 0 .4.63.4 1.4 0 .77.18 1.4.4 1.4.22 0 .4.447.4.994 0 .894 2.252 8.253 3.215 10.506.212.495.586 1.395.832 2 .245.605.605 1.413.8 1.795.194.382.353.967.353 1.3 0 .333.18.605.4.605.22 0 .4.439.4.976 0 .537.18 1.088.4 1.224.22.136.4.597.4 1.024 0 .427.18.776.4.776.22 0 .4.36.4.8 0 .44.18.8.4.8.22 0 .4.36.4.8 0 .44.18.8.4.8.22 0 .4.335.4.744 0 .802 2.405 5.769 2.9 5.989.165.074.3.479.3.9 0 .422.18.767.4.767.22 0 .4.36.4.8 0 .44.18.8.4.8.22 0 .4.32.4.712 0 .391.36.971.8 1.288.44.317.8.897.8 1.288 0 .392.157.712.35.712.193 0 .449.495.57 1.1.121.605.668 1.76 1.216 2.567.548.808.891 1.573.763 1.7-.128.128-.022.233.234.233.257 0 .467.193.467.428s.54 1.213 1.2 2.172c.66.959 1.2 1.897 1.2 2.084 0 .187.36.599.8.916.44.317.8.857.8 1.2 0 .343.36.883.8 1.2.44.317.8.857.8 1.2 0 .343.36.883.8 1.2.44.317.8.809.8 1.092 0 .283.54 1.08 1.2 1.771.66.691 1.2 1.459 1.2 1.708 0 .249.36.712.8 1.029.44.317.8.78.8 1.029 0 .249.54 1.017 1.2 1.708.66.691 1.2 1.355 1.2 1.476 0 .25.304.635 1.978 2.507.65.727 1.292 1.672 1.428 2.1.212.668.768 1.015 1.09.68.053-.055.213-41.86.355-92.9.178-63.86.397-93.985.702-96.6.966-8.264 1.714-12.825 3.251-19.8.242-1.1.54-2.587.662-3.304.122-.717.383-1.402.578-1.523.196-.121.356-.602.356-1.068 0-.901.665-3.244 1.249-4.4.193-.382.351-.969.351-1.305 0-.336.158-.923.351-1.305.193-.382.565-1.415.826-2.295.262-.88.626-1.96.808-2.4.183-.44.913-2.33 1.622-4.2 2.142-5.648 8.117-18.127 9.194-19.2.11-.11.467-.74.793-1.4 1.336-2.701 6.789-10.968 10.159-15.4 13.484-17.734 33.421-34.695 51.247-43.598 1.54-.769 2.86-1.534 2.933-1.7.074-.166.344-.301.6-.299.257.002 1.997-.739 3.867-1.648 3.271-1.588 4.475-2.123 6.2-2.755a84.233 84.233 0 003.8-1.522c1.234-.53 7.428-2.583 10.4-3.448 2.131-.62 2.985-.849 6.8-1.824.99-.253 2.353-.628 3.028-.833.676-.205 1.666-.379 2.2-.387.535-.008 1.422-.272 1.972-.586.55-.314 1.675-.578 2.5-.586.825-.008 1.5-.194 1.5-.414 0-.222-1.067-.4-2.4-.4s-2.4.178-2.4.4m56.4 0c0 .22.39.4.868.4 2.704 0 23.396 5.681 27.932 7.669.55.241 1.36.57 1.8.731 9.699 3.552 28.423 13.945 35.8 19.872.33.265 2.13 1.694 4 3.176 6.777 5.37 15.559 13.876 21.061 20.4 3.972 4.71 4.125 4.901 6.218 7.752 1.05 1.43 2.095 2.821 2.322 3.09 7.633 9.072 18.425 32.048 23.16 49.31.453 1.65 1.025 3.99 1.271 5.2s.619 3.01.829 4c.989 4.65 1.457 7.724 2.407 15.8.282 2.398.473 34.329.572 95.6.082 50.6.245 92.405.362 92.9.261 1.102.859 1.169 1.188.132.134-.422.956-1.547 1.827-2.5.871-.952 1.583-1.868 1.583-2.035 0-.168.54-.869 1.2-1.56.66-.691 1.2-1.411 1.2-1.6 0-.189.54-.909 1.2-1.6.66-.691 1.2-1.459 1.2-1.708 0-.249.36-.712.8-1.029.44-.317.8-.857.8-1.2 0-.343.36-.883.8-1.2.44-.317.8-.857.8-1.2 0-.343.36-.883.8-1.2.44-.317.8-.857.8-1.2 0-.343.36-.883.8-1.2.44-.317.8-.729.8-.916 0-.187.54-1.125 1.2-2.084.66-.959 1.2-1.922 1.2-2.139 0-.217.135-.454.3-.528.474-.21 2.5-4.171 2.5-4.887 0-.355.18-.646.4-.646.22 0 .4-.236.4-.525 0-.288.36-.911.8-1.383.44-.472.8-1.136.8-1.475 0-.339.18-.617.4-.617.22 0 .4-.36.4-.8 0-.44.18-.8.4-.8.22 0 .4-.345.4-.767 0-.421.135-.826.3-.9.495-.22 2.9-5.187 2.9-5.989 0-.409.18-.744.4-.744.22 0 .4-.36.4-.8 0-.44.18-.8.4-.8.22 0 .4-.36.4-.8 0-.44.18-.8.4-.8.22 0 .4-.349.4-.776 0-.427.18-.888.4-1.024.22-.136.4-.687.4-1.224 0-.537.18-.976.4-.976.22 0 .4-.272.4-.605 0-.333.159-.918.353-1.3.195-.382.555-1.19.8-1.795.246-.605.62-1.505.832-2 .951-2.225 3.215-9.607 3.215-10.482 0-.534.18-1.082.4-1.218.22-.136.4-.777.4-1.424 0-.647.18-1.176.4-1.176.22 0 .4-.529.4-1.176 0-.647.18-1.288.4-1.424.22-.136.4-.867.4-1.624 0-.757.18-1.376.4-1.376.22 0 .4-.72.4-1.6 0-.88.18-1.6.4-1.6.22 0 .4-.799.4-1.776s.18-1.888.4-2.024c.22-.136.4-.946.4-1.8 0-.854.18-1.664.4-1.8.22-.136.4-1.036.4-2s.18-1.864.4-2c.22-.136.4-1.317.4-2.624 0-1.317.178-2.376.4-2.376.228 0 .4-1.189.4-2.767 0-1.857.164-2.821.5-2.933.393-.131.5-5.509.5-25.1s-.107-24.969-.5-25.1c-.335-.112-.5-1.071-.5-2.91 0-1.508-.18-2.854-.4-2.99-.22-.136-.4-1.216-.4-2.4s-.18-2.264-.4-2.4c-.22-.136-.4-1.137-.4-2.224 0-1.087-.18-1.976-.4-1.976-.22 0-.4-.799-.4-1.776s-.18-1.888-.4-2.024c-.22-.136-.4-.957-.4-1.824 0-.867-.18-1.576-.4-1.576-.22 0-.4-.72-.4-1.6 0-.88-.18-1.6-.4-1.6-.22 0-.4-.619-.4-1.376 0-.757-.18-1.488-.4-1.624-.22-.136-.4-.777-.4-1.424 0-.647-.18-1.176-.4-1.176-.22 0-.4-.63-.4-1.4 0-.77-.159-1.4-.354-1.4-.195 0-.477-.987-.628-2.194-.151-1.206-.441-2.297-.646-2.423-.205-.127-.372-.659-.372-1.183s-.18-1.064-.4-1.2c-.22-.136-.4-.599-.4-1.029a3.88 3.88 0 00-.353-1.476 32.261 32.261 0 01-.847-1.895 32.261 32.261 0 00-.847-1.895c-.194-.382-.353-1.057-.353-1.5 0-.443-.18-.805-.4-.805-.22 0-.4-.36-.4-.8 0-.44-.18-.8-.4-.8-.22 0-.4-.439-.4-.976 0-.537-.18-1.088-.4-1.224-.22-.136-.4-.597-.4-1.024 0-.427-.18-.776-.4-.776-.22 0-.4-.36-.4-.8 0-.44-.18-.8-.4-.8-.22 0-.4-.272-.4-.605 0-.588-.167-1.013-1.138-2.89-.254-.492-.462-1.167-.462-1.5 0-.333-.146-.605-.325-.605-.179 0-.573-.63-.875-1.4-.302-.77-.696-1.4-.875-1.4-.179 0-.325-.36-.325-.8 0-.44-.18-.8-.4-.8-.22 0-.4-.36-.4-.8 0-.44-.18-.8-.4-.8-.22 0-.4-.36-.4-.8 0-.44-.18-.8-.4-.8-.22 0-.4-.236-.4-.525 0-.288-.36-.911-.8-1.383-.44-.472-.8-1.067-.8-1.321 0-.582-2.095-4.524-2.5-4.704-.165-.074-.3-.311-.3-.528 0-.217-.54-1.18-1.2-2.139-.66-.959-1.2-1.897-1.2-2.084 0-.187-.36-.599-.8-.916-.44-.317-.8-.857-.8-1.2 0-.343-.36-.883-.8-1.2-.44-.317-.8-.857-.8-1.2 0-.343-.36-.883-.8-1.2-.44-.317-.8-.857-.8-1.2 0-.343-.36-.883-.8-1.2-.44-.317-.8-.78-.8-1.029 0-.249-.54-1.017-1.2-1.708-.66-.691-1.2-1.455-1.2-1.699s-.54-.947-1.2-1.564c-.66-.617-1.2-1.281-1.2-1.477 0-.196-.63-1.024-1.4-1.841-.77-.816-1.4-1.645-1.4-1.842 0-.198-.857-1.235-1.905-2.305s-2.35-2.573-2.893-3.34c-1.057-1.494-8.402-8.913-8.402-8.487 0 .14-.315-.16-.7-.667-1.276-1.678-8.276-8.637-9.7-9.642-.77-.544-2.17-1.756-3.111-2.694-.94-.938-1.887-1.705-2.103-1.705-.216 0-.932-.495-1.59-1.1-1.885-1.732-2.344-2.1-2.619-2.1-.141 0-.76-.54-1.377-1.2-.617-.66-1.32-1.2-1.564-1.2s-1.008-.54-1.699-1.2c-.691-.66-1.459-1.2-1.708-1.2-.249 0-.712-.36-1.029-.8-.317-.44-.857-.8-1.2-.8-.343 0-.883-.36-1.2-.8-.317-.44-.857-.8-1.2-.8-.343 0-.883-.36-1.2-.8-.317-.44-.857-.8-1.2-.8-.343 0-.883-.36-1.2-.8-.317-.44-.729-.8-.916-.8-.187 0-1.125-.54-2.084-1.2-.959-.66-1.937-1.2-2.172-1.2-.235 0-.428-.21-.428-.467 0-.256-.105-.362-.233-.234-.127.128-.879-.206-1.67-.743-.791-.537-1.896-1.091-2.454-1.231-.559-.14-1.371-.586-1.805-.99-.434-.404-1.025-.735-1.313-.735-.289 0-.525-.18-.525-.4 0-.22-.36-.4-.8-.4-.44 0-.8-.18-.8-.4 0-.22-.36-.4-.8-.4-.44 0-.8-.146-.8-.325 0-.179-.63-.573-1.4-.875-.77-.302-1.4-.696-1.4-.875 0-.179-.36-.325-.8-.325-.44 0-.8-.18-.8-.4 0-.22-.349-.4-.776-.4-.427 0-.888-.18-1.024-.4-.136-.22-.597-.4-1.024-.4-.427 0-.776-.18-.776-.4 0-.22-.45-.4-1-.4s-1-.18-1-.4c0-.22-.36-.4-.8-.4-.44 0-.8-.18-.8-.4 0-.22-.36-.4-.8-.4-.44 0-.8-.18-.8-.4 0-.22-.54-.4-1.2-.4-.66 0-1.2-.18-1.2-.4 0-.22-.36-.4-.8-.4-.44 0-.8-.18-.8-.4 0-.22-.362-.4-.805-.4-.443 0-1.118-.159-1.5-.353a32.261 32.261 0 00-1.895-.847 32.261 32.261 0 01-1.895-.847c-.382-.194-.969-.353-1.305-.353-.336 0-.923-.163-1.305-.363-1.142-.597-4.917-1.637-5.941-1.637-.525 0-.954-.18-.954-.4 0-.22-.63-.4-1.4-.4-.77 0-1.4-.18-1.4-.4 0-.22-.54-.4-1.2-.4-.66 0-1.2-.18-1.2-.4 0-.22-.72-.4-1.6-.4-.88 0-1.6-.18-1.6-.4 0-.22-.72-.4-1.6-.4-.88 0-1.6-.18-1.6-.4 0-.22-.709-.4-1.576-.4-.867 0-1.688-.18-1.824-.4-.136-.22-1.047-.4-2.024-.4-.977 0-1.776-.18-1.776-.4 0-.22-.889-.4-1.976-.4s-2.088-.18-2.224-.4c-.136-.22-1.317-.4-2.624-.4-1.317 0-2.376-.178-2.376-.4 0-.226-1.133-.4-2.6-.4s-2.6.174-2.6.4m-67.379 128.046c-14.876 7.683-19.634 26.493-10.211 40.368 1.74 2.563 6.254 7.186 7.016 7.186.279 0 .567.137.641.303.172.392 4.909 2.897 5.477 2.897 1.864 0 7.12-10.892 8.856-18.354.648-2.781.68-12.803.051-15.646-1.472-6.657-3.02-10.496-6.259-15.523-1.863-2.89-2.211-2.967-5.571-1.231m124.619.193c-14.806 8.033-19.354 26.283-10.009 40.161 1.519 2.256 5.802 6.543 7.575 7.583 2.092 1.226 5.257 2.817 5.605 2.817.862 0 4.688-6.102 6.396-10.2 1.062-2.549 1.482-3.945 2.346-7.8 1.092-4.877.666-16.376-.735-19.8-.18-.44-.568-1.61-.863-2.6-1.353-4.547-5.592-11.616-6.94-11.575-.448.014-1.967.65-3.375 1.414M91.4 357.629c-.88.212-2.5.584-3.6.828-1.9.422-7 2.617-7 3.013 0 .334 1.133 1.33 1.512 1.33.203 0 .934.54 1.625 1.2.691.66 1.488 1.2 1.771 1.2.283 0 .775.36 1.092.8.317.44.857.8 1.2.8.343 0 .883.36 1.2.8.317.44.857.8 1.2.8.343 0 .883.36 1.2.8.317.44.729.8.916.8.187 0 1.125.54 2.084 1.2.959.66 1.937 1.2 2.172 1.2.235 0 .428.18.428.4 0 .22.197.4.438.4s.946.361 1.567.803c.62.442 1.683.915 2.361 1.05.679.136 1.234.404 1.234.597 0 .193.32.35.712.35.391 0 .971.36 1.288.8.317.44.897.8 1.288.8.392 0 .712.18.712.4 0 .22.36.4.8.4.44 0 .8.18.8.4 0 .22.345.4.767.4.421 0 .826.135.9.3.22.495 5.187 2.9 5.989 2.9.409 0 .744.18.744.4 0 .22.36.4.8.4.44 0 .8.18.8.4 0 .22.36.4.8.4.44 0 .8.147.8.328 0 .18.9.572 2 .872 1.1.3 2 .692 2 .872 0 .181.272.328.605.328.333 0 .963.18 1.4.4l1.59.8c.437.22 1.157.4 1.6.4.443 0 .805.141.805.313 0 .172.855.562 1.9.867 1.045.305 2.17.688 2.5.85 1.138.561 4.894 1.57 5.846 1.57.525 0 .954.18.954.4 0 .22.63.4 1.4.4.77 0 1.4.18 1.4.4 0 .22.63.4 1.4.4.77 0 1.4.18 1.4.4 0 .22.63.4 1.4.4.77 0 1.4.18 1.4.4 0 .22.709.4 1.576.4.867 0 1.688.18 1.824.4.136.22 1.047.4 2.024.4.977 0 1.776.18 1.776.4 0 .22.72.4 1.6.4.88 0 1.6.18 1.6.4 0 .22.99.4 2.2.4 1.21 0 2.2.18 2.2.4 0 .222 1.067.4 2.4.4s2.4.178 2.4.4c0 .228 1.189.4 2.767.4 1.857 0 2.821.164 2.933.5.131.393 5.509.5 25.1.5s24.969-.107 25.1-.5c.112-.336 1.076-.5 2.933-.5 1.578 0 2.767-.172 2.767-.4 0-.222 1.067-.4 2.4-.4s2.4-.178 2.4-.4c0-.22.99-.4 2.2-.4 1.21 0 2.2-.18 2.2-.4 0-.22.72-.4 1.6-.4.88 0 1.6-.18 1.6-.4 0-.22.9-.4 2-.4s2-.18 2-.4c0-.22.72-.4 1.6-.4.88 0 1.6-.18 1.6-.4 0-.22.619-.4 1.376-.4.757 0 1.488-.18 1.624-.4.136-.22.777-.4 1.424-.4.647 0 1.176-.18 1.176-.4 0-.22.63-.4 1.4-.4.77 0 1.4-.159 1.4-.354 0-.195.987-.477 2.194-.628 1.206-.151 2.297-.441 2.423-.646.127-.205.659-.372 1.183-.372s1.042-.144 1.151-.321c.109-.176 1.11-.569 2.224-.872 1.114-.303 2.025-.699 2.025-.879 0-.181.439-.328.976-.328.537 0 1.088-.18 1.224-.4.136-.22.687-.4 1.224-.4.537 0 .976-.18.976-.4 0-.22.36-.4.8-.4.44 0 .8-.18.8-.4 0-.22.439-.4.976-.4.537 0 1.088-.18 1.224-.4.136-.22.597-.4 1.024-.4.427 0 .776-.18.776-.4 0-.22.36-.4.8-.4.44 0 .8-.18.8-.4 0-.22.272-.4.605-.4.333 0 .918-.162 1.3-.359.382-.198 2.315-1.141 4.295-2.096 1.98-.956 3.66-1.874 3.733-2.041.074-.167.479-.304.9-.304.422 0 .767-.18.767-.4 0-.22.278-.4.617-.4.339 0 1.003-.36 1.475-.8.472-.44 1.095-.8 1.383-.8.289 0 .525-.157.525-.35 0-.193.555-.461 1.234-.597.678-.135 1.741-.608 2.361-1.05.621-.442 1.326-.803 1.567-.803.241 0 .438-.18.438-.4 0-.22.193-.4.428-.4s1.213-.54 2.172-1.2c.959-.66 1.897-1.2 2.084-1.2.187 0 .599-.36.916-.8.317-.44.857-.8 1.2-.8.343 0 .883-.36 1.2-.8.317-.44.857-.8 1.2-.8.343 0 .883-.36 1.2-.8.317-.44.857-.8 1.2-.8.343 0 .883-.36 1.2-.8.317-.44.762-.8.988-.8 1.133-.002 2.711-1.958 2.085-2.584-.339-.339-.721-.616-.849-.616s-.996-.336-1.928-.748c-1.671-.736-3.047-1.143-6.802-2.011-2.428-.562-10.562-.572-13.017-.016-4.463 1.009-5.629 1.374-8.277 2.584-3.104 1.418-7.051 4.002-11 7.201-10.038 8.13-19.068 11.116-29.7 9.819-4.614-.562-5.869-.879-9.8-2.476-1.1-.446-1.415-.603-4.175-2.084-.812-.435-3.332-2.207-5.6-3.937-10.739-8.191-12.623-9.194-20.831-11.091-4.45-1.029-13.283-.364-18.599 1.401-3.634 1.206-14.124 7.844-16.095 10.185-.435.516-6.283 4.26-7.6 4.864-12.208 5.607-25.321 4.392-36.79-3.407-.995-.677-1.9-1.342-2.01-1.478-.11-.135-2.17-1.717-4.578-3.515-8.441-6.304-13.195-8.033-22.822-8.301-2.86-.08-5.92.028-6.8.239" fill="#443c5c"/><path d="M188.4.478c-.77.224-2.605.322-4.078.219-1.909-.133-2.733-.044-2.869.309-.109.285-1.269.596-2.722.731-2.648.244-4.069.496-10.331 1.826-3.529.749-8.273 1.934-11.6 2.898-.77.222-1.897.501-2.505.618-.608.117-1.203.372-1.324.567-.12.195-.647.354-1.171.354s-1.064.18-1.2.4c-.136.22-.599.4-1.029.4-.43 0-1.184.208-1.676.462-1.926.996-2.312 1.138-3.09 1.138-.443 0-.805.18-.805.4 0 .22-.272.4-.605.4-.333 0-.918.159-1.3.353-.382.195-1.145.536-1.695.759-2.08.843-14.285 6.928-16.2 8.077-1.1.66-2.27 1.323-2.6 1.473-.33.15-1.352.782-2.272 1.405-.92.623-1.865 1.133-2.1 1.133-.235 0-.428.18-.428.4 0 .22-.27.4-.6.4-.33 0-.6.18-.6.4 0 .22-.188.4-.417.4-.229 0-.803.36-1.275.8-.472.44-1.095.8-1.383.8-.289 0-.525.141-.525.314 0 .172-.533.629-1.185 1.014s-1.417.925-1.7 1.199c-.283.275-1.145.935-1.915 1.467s-1.49 1.076-1.6 1.208c-.11.133-1.46 1.265-3 2.516a952.689 952.689 0 00-4.379 3.578C96.009 40.723 87.799 48.974 85.4 51.781a229.372 229.372 0 01-2.402 2.78c-.221.241-1.208 1.429-2.194 2.639-.986 1.21-1.894 2.29-2.018 2.4-.123.11-.657.83-1.186 1.6-.529.77-1.076 1.49-1.216 1.6-.684.539-7.569 11.273-10.492 16.36-1.775 3.086-5.492 10.608-5.492 11.11 0 .292-.18.53-.4.53-.22 0-.4.236-.4.525 0 .289-.36 1.27-.8 2.181-.44.91-.8 1.898-.8 2.195 0 .296-.158.71-.351.919-.873.946-5.007 13.637-6.507 19.98-.208.88-.553 2.32-.767 3.2-.37 1.526-.718 3.294-1.613 8.2-.486 2.661-1.018 6.772-1.604 12.4-.871 8.349-1.101 187.668-.243 188.46.394.363.792 1.056.885 1.54.093.484.581 1.234 1.085 1.668 2.491 2.146 4.715 4.359 4.715 4.692 0 .206.225.464.5.575.347.14.32.211-.089.233-.384.021-.245.274.4.729.544.383 1.137.649 1.319.59.181-.059.219.072.083.291-.135.22.235.809.823 1.31 1.604 1.369 4.161 3.912 3.933 3.912-.11 0 .032.253.315.562.284.309.606.557.716.552.736-.033 1.201.236 2.422 1.4 1.965 1.875 3.879 4.068 3.216 3.686-.377-.217-.468-.172-.276.138.157.254.545.462.862.462.317 0 .576.18.576.4 0 .22.36.4.8.4.44 0 .8.21.8.467 0 .256.115.351.256.21.271-.271 2.944 2.454 2.944 3.001 0 .177.371.322.824.322.453 0 .713.178.579.395-.146.236.035.289.446.131.522-.201.629-.107.441.384-.184.48-.08.584.4.4.484-.186.584-.08.394.416-.14.365-.127.637.03.605.611-.128 2.445.864 3.445 1.864.868.868 1.09.942 1.288.427.131-.342.492-.622.801-.622.31 0 .92-.18 1.357-.4l1.59-.8c.437-.22 1.146-.4 1.576-.4.43 0 .881-.161 1.003-.358.544-.881 15.228-1.658 16.814-.89.447.217 1.352.479 2.012.583.66.105 1.605.318 2.1.474l.9.284V266.67c0-60.784-.135-91.906-.4-92.07-.22-.136-.4-.597-.4-1.024 0-.427-.18-.776-.4-.776-.22 0-.4-.324-.4-.72 0-.396-.159-.891-.353-1.1-.521-.559-2.047-5.096-2.047-6.083 0-.467-.155-.945-.343-1.062-1.299-.803-1.299-18.867 0-19.67.188-.117.343-.731.343-1.365s.18-1.264.4-1.4c.22-.136.4-.599.4-1.029 0-.43.208-1.184.462-1.676.971-1.877 1.138-2.302 1.138-2.89 0-.333.18-.605.4-.605.22 0 .4-.36.4-.8 0-.44.135-.801.3-.803.719-.008 1.387-2.547 1.895-7.197 1.475-13.513 3.408-23.932 6.789-36.6 1.203-4.506 3.568-12.077 4.749-15.206.331-.877 1.143-3.034 1.804-4.794 9.541-25.407 24.69-46.441 42.288-58.712 3.185-2.222 12.301-7.086 13.28-7.087.278-.001.818-.173 1.2-.383.631-.346 3.578-1.231 7.941-2.383.906-.239 2.436-.448 3.4-.463.965-.016 2.114-.183 2.554-.372 1.164-.5-4.449-.43-6.2.078m17.293-.252c.124.124 1.189.296 2.366.382 2.036.148 2.063.138.541-.203-1.864-.418-3.231-.502-2.907-.179M353.396 240.2c0 48.62.047 68.569.104 44.332.057-24.237.057-64.017 0-88.4-.057-24.383-.104-4.552-.104 44.068m-3.176 91.538c-1.436 1.883-1.277 2.295.18.462.66-.831 1.2-1.575 1.2-1.655 0-.41-.461-.011-1.38 1.193m-18.898 18.849c-.617.543-1.015.993-.884 1 .131.007.761-.437 1.4-.987.639-.549 1.037-.999.884-1-.152 0-.782.444-1.4.987m-183.617 26.5c.609.092 1.509.09 2-.005.492-.095-.005-.171-1.105-.168-1.1.003-1.503.081-.895.173m102.8 0c.609.092 1.509.09 2-.005.492-.095-.005-.171-1.105-.168-1.1.003-1.503.081-.895.173" fill="#149cbc"/><path d="M184.2.4c-1.413.253-1.296.288 1 .303 1.43.01 3.05-.127 3.6-.303 1.303-.417-2.27-.417-4.6 0m23.468-.211c.148.154 2.398.439 5 .631 4.552.337 7.834.746 12.532 1.562 1.21.21 2.83.489 3.6.619 3.254.551 13.517 3.08 15.4 3.794.44.166 2.6.874 4.8 1.572 2.2.698 4.36 1.417 4.8 1.597 2.153.885 2.908 1.201 4.2 1.762.77.335 2.21.928 3.2 1.318 4.509 1.779 16 7.84 19.959 10.528 1.319.896 2.553 1.628 2.744 1.628.19 0 .696.315 1.124.7.428.385 1.947 1.499 3.376 2.476 10.739 7.343 23.051 18.981 31.762 30.024a688.493 688.493 0 003.24 4.083c4.145 5.075 13.05 20.368 16.607 28.517 1.328 3.044 2.038 4.719 2.375 5.6.522 1.365 1.29 3.168 1.66 3.895.194.382.353.969.353 1.305 0 .336.171.923.381 1.305.402.733 1.572 4.272 2.412 7.295.275.99.648 2.25.83 2.8.182.55.65 2.35 1.04 4 .391 1.65.773 2.691.85 2.314.246-1.204-3.299-13.416-5.755-19.823-3.159-8.242-5.472-13.227-9.505-20.491-2.436-4.387-7.887-13.125-9.052-14.51-.227-.269-1.272-1.66-2.322-3.09-2.093-2.851-2.246-3.042-6.218-7.752-5.502-6.524-14.284-15.03-21.061-20.4a1767.53 1767.53 0 01-4-3.176c-4.84-3.889-16.82-11.09-25.119-15.098-5.621-2.715-6.534-3.133-8.581-3.92a88.154 88.154 0 01-2.1-.854c-.66-.279-1.56-.656-2-.838C249.198 7.491 229.06 2 226.468 2c-.478 0-.868-.18-.868-.4 0-.225-1.122-.4-2.567-.4-1.411 0-2.626-.161-2.7-.357-.073-.197-3.013-.488-6.533-.647-3.52-.159-6.279-.162-6.132-.007M179.2.8c0 .226-1.133.4-2.6.4s-2.6.174-2.6.4c0 .22-.675.406-1.5.414-.825.008-1.95.272-2.5.586-.55.314-1.54.581-2.2.592-.66.011-1.47.195-1.8.408-.873.564-.028.506 3.4-.234 4.716-1.017 7.098-1.443 9.569-1.71C181.493 1.383 182.64.4 180.433.4c-.678 0-1.233.18-1.233.4m-16.4 3.6c-.787.509.616.509 1.8 0 .733-.315.716-.346-.2-.366-.55-.012-1.27.153-1.6.366m-3.2.8c-.787.509.616.509 1.8 0 .733-.315.716-.346-.2-.366-.55-.012-1.27.153-1.6.366m-2.8.8c-.497.321-.462.388.2.388.44 0 1.07-.175 1.4-.388.497-.321.462-.388-.2-.388-.44 0-1.07.175-1.4.388m-6 1.823c-2.31.774-4.56 1.556-5 1.739-.44.182-1.34.559-2 .838-.66.279-1.56.639-2 .8-1.725.632-2.929 1.167-6.2 2.755-1.87.909-3.61 1.65-3.867 1.648-.256-.002-.526.133-.6.299-.073.166-1.393.931-2.933 1.7-17.826 8.903-37.763 25.864-51.247 43.598-3.37 4.432-8.823 12.699-10.159 15.4-.326.66-.683 1.29-.793 1.4-1.077 1.073-7.052 13.552-9.194 19.2-.709 1.87-1.432 3.76-1.608 4.2-1.018 2.558-1.26 3.413-1.095 3.88.101.286.372-.11.603-.88.796-2.65 2.592-7.401 2.942-7.78.193-.209.351-.623.351-.919 0-.297.36-1.285.8-2.195.44-.911.8-1.892.8-2.181 0-.289.18-.525.4-.525.22 0 .4-.238.4-.53 0-1.933 13.909-25.836 15.984-27.47.14-.11.687-.83 1.216-1.6.529-.77 1.063-1.49 1.186-1.6.124-.11 1.032-1.19 2.018-2.4.986-1.21 1.973-2.398 2.194-2.639.221-.242 1.302-1.493 2.402-2.78 2.399-2.807 10.609-11.058 12.821-12.885.869-.717 2.839-2.327 4.379-3.578 1.54-1.251 2.89-2.383 3-2.516.11-.132.83-.676 1.6-1.208.77-.532 1.632-1.192 1.915-1.467.283-.274 1.048-.814 1.7-1.199.652-.385 1.185-.842 1.185-1.014 0-.173.236-.314.525-.314.288 0 .911-.36 1.383-.8.472-.44 1.046-.8 1.275-.8a.41.41 0 00.417-.4c0-.22.27-.4.6-.4.33 0 .6-.18.6-.4 0-.22.193-.4.428-.4s1.18-.51 2.1-1.133c.92-.623 1.942-1.255 2.272-1.405.33-.15 1.5-.813 2.6-1.473 1.915-1.149 14.12-7.234 16.2-8.077.55-.223 1.313-.564 1.695-.759.382-.194.967-.353 1.3-.353.333 0 .605-.18.605-.4 0-.22.362-.4.805-.4.443 0 1.163-.18 1.6-.4l1.59-.8c.437-.22 1.146-.4 1.576-.4.43 0 .893-.18 1.029-.4.136-.22.676-.4 1.2-.4.524 0 1.064-.18 1.2-.4.136-.22.642-.403 1.124-.406.482-.003 1.146-.181 1.476-.394 1.203-.777-.526-.409-4.8 1.023m-97.333 98.444c-.147.146-.267.599-.267 1.005 0 .406-.158 1.051-.351 1.433-.584 1.156-1.249 3.499-1.249 4.4 0 .466-.16.947-.356 1.068-.195.121-.456.806-.578 1.523-.122.717-.42 2.204-.662 3.304-1.538 6.979-2.289 11.554-3.25 19.8-.305 2.612-.523 32.938-.699 97L45.8 329l.878.897c.484.493.982.729 1.108.525.126-.203-.179-.787-.678-1.296l-.908-.926.26-91.8c.175-61.851.403-93.17.698-96 .586-5.628 1.118-9.739 1.604-12.4.895-4.906 1.243-6.674 1.613-8.2.214-.88.559-2.32.768-3.2.61-2.571 1.63-6.249 2.309-8.326.597-1.827.603-2.596.015-2.007M350.194 122c.168.99.458 2.61.645 3.6 2.63 13.922 2.753 19.115 2.757 116.058l.004 86.657-1.2 1.285c-.66.707-1.2 1.431-1.2 1.609 0 .423-17.89 18.344-19.358 19.391-.616.44-1.941 1.565-2.945 2.5-1.003.935-1.975 1.7-2.16 1.7-.185 0-1.078.72-1.985 1.6-.907.88-1.825 1.6-2.04 1.6-.215 0-.91.555-1.543 1.234-1.277 1.366-2.48 1.362-4.942-.017-.675-.378-1.677-.793-2.227-.921-.55-.129-2.08-.511-3.4-.851-2.843-.731-13.021-.874-15.554-.219-4.193 1.084-4.865 1.319-8.046 2.81-1.904.893-7.777 4.596-8.2 5.171-1.329 1.805-13.622 9.617-15.105 9.599-.278-.003-.818.156-1.2.355-2.873 1.493-10.488 2.216-15.495 1.471-5.913-.879-6.761-1.092-9.095-2.279-.382-.194-.867-.353-1.078-.353-.842 0-5.572-3.09-11.071-7.233-3.188-2.402-5.89-4.367-6.004-4.367-.114 0-.993-.54-1.952-1.2-.959-.66-1.849-1.2-1.976-1.2-.128 0-.996-.336-1.928-.748-.933-.411-2.416-.937-3.296-1.168l-3.246-.852c-2.133-.56-12.575-.56-14.708 0-4.048 1.061-5.011 1.391-7.646 2.621-2.716 1.268-4.991 2.518-5.4 2.966-.11.121-.83.655-1.6 1.187-.77.533-2.709 2.003-4.31 3.268-4.925 3.893-11.037 7.526-12.662 7.526-.319 0-.68.16-.801.356-.237.384-.666.471-7.027 1.435-5.201.788-12.75.1-15.695-1.43-.382-.199-.879-.361-1.104-.361-1.438 0-8.522-4.291-13.005-7.877-5.316-4.253-6.352-4.937-10.596-6.992-2.58-1.249-4.293-1.818-6.6-2.191-.66-.107-1.565-.371-2.012-.588-1.586-.768-16.27.009-16.814.89-.122.197-.573.358-1.003.358-.43 0-1.184.208-1.676.462-1.863.963-2.3 1.138-2.847 1.138-.309 0-.666.27-.793.6-.297.776-.161.758 1.539-.197 3.812-2.141 10.421-3.379 16.417-3.076 6.475.328 9.799 1.127 14.411 3.463 2.574 1.304 11.3 7.334 12.178 8.416.315.389 3.625 2.595 5.81 3.873 5.977 3.495 14.061 5.056 21.49 4.15 7.127-.869 16.346-4.731 19.1-8.002.84-.997 8.785-6.624 11.2-7.932 10.214-5.53 22.752-5.606 33.4-.202 2.149 1.09 4.437 2.69 10.925 7.639 2.268 1.73 4.788 3.502 5.6 3.937 2.766 1.484 3.075 1.638 4.075 2.031.55.216 1.45.572 2 .791 11.769 4.685 25.476 1.739 37.6-8.081 3.949-3.199 7.896-5.783 11-7.201 2.648-1.21 3.814-1.575 8.277-2.584 2.455-.556 10.589-.546 13.017.016 3.755.868 5.131 1.275 6.802 2.011.932.412 1.877.748 2.1.748.222 0 .404.18.404.4 0 .943 2.094.332 3.427-1 .77-.77 1.576-1.4 1.792-1.4.216 0 1.226-.81 2.245-1.8 1.019-.99 1.991-1.8 2.161-1.8.171 0 1.059-.72 1.975-1.6.916-.88 1.817-1.6 2.003-1.6.272 0 3.11-2.785 9.894-9.71.166-.17 2.314-2.269 4.772-4.664 2.459-2.395 4.395-4.429 4.303-4.521-.092-.092.597-.964 1.53-1.939l1.698-1.771-.256-93.198c-.168-61.187-.401-94.433-.678-96.797-.933-7.959-1.263-10.143-2.446-16.169-.518-2.641-1.054-3.351-.626-.831M158.2 129.21c-7.311 3.595-13.512 11.657-14.759 19.19-.257 1.553-.004.948 1.004-2.4 2.079-6.906 7.251-13.025 13.838-16.372 3.346-1.701 3.653-1.631 5.509 1.249 3.239 5.027 4.787 8.866 6.259 15.523.629 2.843.597 12.865-.051 15.646-1.49 6.404-3.308 10.745-6.474 15.454-2.225 3.308-2.184 3.294-5.092 1.692-1.191-.657-2.247-1.112-2.347-1.012-.34.34 5.013 2.744 5.604 2.517.683-.262 3.733-4.777 5.198-7.697 6.631-13.207 5.299-31.827-3.084-43.1-1.683-2.263-2.261-2.334-5.605-.69m124.8.039c-2.641 1.355-5.768 3.562-5.788 4.085-.006.183.68-.215 1.527-.886 1.94-1.536 6.644-4.048 7.582-4.048 1.249 0 5.558 7.313 6.834 11.6.295.99.683 2.16.863 2.6 1.401 3.424 1.827 14.923.735 19.8-1.221 5.451-1.934 7.338-4.855 12.857-.957 1.808-3.121 4.716-3.807 5.116-.549.32-.568.406-.091.417.685.017 3.2-2.723 3.2-3.486 0-.277.135-.505.3-.507.165-.002.498-.407.74-.9.243-.493.853-1.707 1.357-2.697s1.092-2.25 1.306-2.8c.215-.55.549-1.313.744-1.695a3.88 3.88 0 00.353-1.476c0-.43.16-.881.356-1.002 1.959-1.211 1.959-23.243 0-24.454-.196-.121-.356-.572-.356-1.002 0-.43-.164-1.094-.365-1.476-.201-.382-.854-1.775-1.45-3.095-3.561-7.88-5.102-9.047-9.185-6.951m-8.265 6.441c-2.302 2.731-3.672 4.706-3.43 4.948.106.106.746-.669 1.424-1.723.677-1.053 1.885-2.606 2.683-3.45.799-.844 1.373-1.613 1.277-1.71-.096-.096-.976.775-1.954 1.935m-5.07 7.955c-.783 2.09-.82 2.853-.057 1.197.445-.967.72-1.847.612-1.956-.109-.108-.359.233-.555.759m-1.389 4.365a8.163 8.163 0 00-.23 1.99c.025.718.138.557.403-.573.406-1.732.251-3.002-.173-1.417M142.882 154c-.066 5.187.761 8.934 2.915 13.204 1.665 3.301 4.535 6.855 7.203 8.918 1.12.867.841.474-.931-1.309-2.781-2.8-5.156-6.084-6.386-8.832-1.814-4.056-2.122-5.456-2.456-11.181l-.292-5-.053 4.2m124.852.4c0 1.65.071 2.325.157 1.5.087-.825.087-2.175 0-3-.086-.825-.157-.15-.157 1.5m.341 4.6c-.01.66.136 1.56.325 2l.344.8-.019-.8c-.011-.44-.157-1.34-.325-2l-.305-1.2-.02 1.2m2.325 7.714c0 1.369 8.063 10.957 8.688 10.331.083-.083-.959-1.207-2.316-2.498-2.354-2.239-5.572-6.455-5.572-7.301 0-.22-.18-.51-.4-.646-.22-.136-.4-.084-.4.114m9.8 11.131c1.22.944 4.653 2.635 4.883 2.405.112-.112-.456-.479-1.263-.816-.807-.337-1.979-.977-2.605-1.423-1.322-.942-2.203-1.086-1.015-.166M48.8 332.625c0 .434 4.921 4.975 5.358 4.943.262-.018.239-.113-.058-.233-.275-.111-.5-.365-.5-.564 0-.199-.945-1.262-2.1-2.362-1.941-1.85-2.7-2.351-2.7-1.784m13.4 13.382c1.293 1.578 4.297 4.393 4.687 4.393.198 0 .232.208.075.462-.184.297-.109.353.209.156.486-.3.243-.64-2.592-3.63-.451-.476-1.351-1.201-2-1.611l-1.179-.746.8.976m7.996 6.799c-.288.466.323 1.14 2.004 2.214 1.19.76 1.195.759.6-.02-1.266-1.658-2.364-2.582-2.604-2.194M74 356.424c0 .233.18.312.4.176.22-.136.4.069.4.456 0 .561.101.603.497.207.395-.395.375-.573-.1-.874-.787-.497-1.197-.485-1.197.035m1.6 1.4c0 .343.18.512.4.376.22-.136.4-.057.4.176 0 .233.182.424.403.424.24 0 .2-.326-.096-.8-.597-.957-1.107-1.038-1.107-.176m3.124 2.221c.728.682 1.432 1.132 1.565 1 .28-.281-1.899-2.245-2.489-2.243-.22.001.196.56.924 1.243" fill="#388dac"/></g></svg>